<?xml version="1.0" encoding="UTF-8"?>
<svg xmlns="http://www.w3.org/2000/svg" xmlns:xlink="http://www.w3.org/1999/xlink" width="12px" height="12px" viewBox="0 0 12 12" version="1.1">
<g id="surface1">
<path style=" stroke:none;fill-rule:nonzero;fill:rgb(0%,0%,0%);fill-opacity:1;" d="M 11.183594 9.816406 L 8.421875 7.410156 C 8.84375 6.800781 9.070312 6.074219 9.066406 5.332031 C 8.972656 3.140625 7.136719 1.433594 4.941406 1.5 C 2.742188 1.4375 0.898438 3.160156 0.816406 5.363281 C 0.894531 7.566406 2.738281 9.292969 4.941406 9.226562 C 5.996094 9.230469 7.019531 8.847656 7.808594 8.144531 L 10.558594 10.5 Z M 4.941406 8.25 C 3.257812 8.316406 1.832031 7.011719 1.753906 5.324219 C 1.832031 3.640625 3.257812 2.332031 4.941406 2.398438 C 6.628906 2.332031 8.054688 3.640625 8.128906 5.324219 C 8.058594 7.011719 6.628906 8.320312 4.941406 8.25 Z M 4.941406 8.25 "/>
</g>
</svg>
